<mxfile host="app.diagrams.net" modified="2024-04-02T03:20:28.991Z" agent="Mozilla/5.0 (Windows NT 10.0; Win64; x64) AppleWebKit/537.36 (KHTML, like Gecko) Chrome/123.0.0.0 Safari/537.36 Edg/123.0.0.0" etag="H6M1EWtzyfSO9cWLkKcL" version="24.0.6" type="device">
  <diagram name="Page-1" id="Ity0bdre5pDZpc1G7dg2">
    <mxGraphModel dx="1042" dy="1669" grid="1" gridSize="10" guides="1" tooltips="1" connect="1" arrows="1" fold="1" page="1" pageScale="1" pageWidth="850" pageHeight="1100" math="0" shadow="0">
      <root>
        <mxCell id="0" />
        <mxCell id="1" parent="0" />
        <mxCell id="qRgKyZx6B3KWVO3zU2cP-1" value="" style="verticalLabelPosition=bottom;verticalAlign=top;html=1;shadow=0;dashed=0;strokeWidth=1;shape=mxgraph.android.phone2;strokeColor=#c0c0c0;" parent="1" vertex="1">
          <mxGeometry x="50" y="70" width="210" height="430" as="geometry" />
        </mxCell>
        <mxCell id="qRgKyZx6B3KWVO3zU2cP-2" value="game screen" style="strokeWidth=1;shadow=0;dashed=0;align=center;html=1;shape=mxgraph.mockup.text.textBox;fontColor=#666666;align=left;fontSize=17;spacingLeft=4;spacingTop=-3;whiteSpace=wrap;strokeColor=#666666;mainText=" parent="1" vertex="1">
          <mxGeometry x="90" y="-30" width="150" height="30" as="geometry" />
        </mxCell>
        <mxCell id="qRgKyZx6B3KWVO3zU2cP-3" value="Teamle" style="strokeWidth=1;shadow=0;dashed=0;align=center;html=1;shape=mxgraph.mockup.text.textBox;fontColor=#666666;align=left;fontSize=17;spacingLeft=4;spacingTop=-3;whiteSpace=wrap;strokeColor=#666666;mainText=" parent="1" vertex="1">
          <mxGeometry x="120" y="160" width="70" height="30" as="geometry" />
        </mxCell>
        <mxCell id="qRgKyZx6B3KWVO3zU2cP-4" value="&lt;font size=&quot;3&quot;&gt;;&lt;br&gt;&lt;/font&gt;" style="whiteSpace=wrap;html=1;aspect=fixed;" parent="1" vertex="1">
          <mxGeometry x="210" y="110" width="40" height="40" as="geometry" />
        </mxCell>
        <mxCell id="qRgKyZx6B3KWVO3zU2cP-5" value="settings button" style="strokeWidth=1;shadow=0;dashed=0;align=center;html=1;shape=mxgraph.mockup.text.textBox;fontColor=#666666;align=left;fontSize=17;spacingLeft=4;spacingTop=-3;whiteSpace=wrap;strokeColor=#666666;mainText=" parent="1" vertex="1">
          <mxGeometry x="190" y="30" width="150" height="30" as="geometry" />
        </mxCell>
        <mxCell id="qRgKyZx6B3KWVO3zU2cP-6" value="" style="endArrow=none;html=1;rounded=0;" parent="1" target="qRgKyZx6B3KWVO3zU2cP-12" edge="1">
          <mxGeometry width="50" height="50" relative="1" as="geometry">
            <mxPoint x="240" y="110" as="sourcePoint" />
            <mxPoint x="290" y="60" as="targetPoint" />
          </mxGeometry>
        </mxCell>
        <mxCell id="qRgKyZx6B3KWVO3zU2cP-7" value="guess-list drop box" style="rounded=0;whiteSpace=wrap;html=1;" parent="1" vertex="1">
          <mxGeometry x="70" y="200" width="170" height="30" as="geometry" />
        </mxCell>
        <mxCell id="qRgKyZx6B3KWVO3zU2cP-9" value="list of guesses/ answers for each category" style="rounded=1;whiteSpace=wrap;html=1;" parent="1" vertex="1">
          <mxGeometry x="70" y="240" width="170" height="110" as="geometry" />
        </mxCell>
        <mxCell id="qRgKyZx6B3KWVO3zU2cP-10" value="where keyboard would pop up" style="rounded=0;whiteSpace=wrap;html=1;" parent="1" vertex="1">
          <mxGeometry x="60" y="390" width="120" height="60" as="geometry" />
        </mxCell>
        <mxCell id="qRgKyZx6B3KWVO3zU2cP-11" value="" style="verticalLabelPosition=bottom;verticalAlign=top;html=1;shadow=0;dashed=0;strokeWidth=1;shape=mxgraph.android.phone2;strokeColor=#c0c0c0;" parent="1" vertex="1">
          <mxGeometry x="310" y="80" width="200" height="390" as="geometry" />
        </mxCell>
        <mxCell id="qRgKyZx6B3KWVO3zU2cP-12" value="settings screen" style="strokeWidth=1;shadow=0;dashed=0;align=center;html=1;shape=mxgraph.mockup.text.textBox;fontColor=#666666;align=left;fontSize=17;spacingLeft=4;spacingTop=-3;whiteSpace=wrap;strokeColor=#666666;mainText=" parent="1" vertex="1">
          <mxGeometry x="335" y="-30" width="150" height="30" as="geometry" />
        </mxCell>
        <mxCell id="qRgKyZx6B3KWVO3zU2cP-13" value="" style="endArrow=classic;html=1;rounded=0;exitX=0.75;exitY=1;exitDx=0;exitDy=0;" parent="1" source="qRgKyZx6B3KWVO3zU2cP-4" edge="1">
          <mxGeometry width="50" height="50" relative="1" as="geometry">
            <mxPoint x="400" y="160" as="sourcePoint" />
            <mxPoint x="310" y="200" as="targetPoint" />
          </mxGeometry>
        </mxCell>
        <mxCell id="qRgKyZx6B3KWVO3zU2cP-15" value="select leagues option" style="rounded=0;whiteSpace=wrap;html=1;" parent="1" vertex="1">
          <mxGeometry x="320" y="170" width="180" height="50" as="geometry" />
        </mxCell>
        <mxCell id="qRgKyZx6B3KWVO3zU2cP-16" value="select sport option" style="rounded=0;whiteSpace=wrap;html=1;" parent="1" vertex="1">
          <mxGeometry x="320" y="120" width="180" height="40" as="geometry" />
        </mxCell>
        <mxCell id="qRgKyZx6B3KWVO3zU2cP-18" value="" style="verticalLabelPosition=bottom;verticalAlign=top;html=1;shadow=0;dashed=0;strokeWidth=1;shape=mxgraph.android.phone2;strokeColor=#c0c0c0;" parent="1" vertex="1">
          <mxGeometry x="600" y="70" width="200" height="390" as="geometry" />
        </mxCell>
        <mxCell id="qRgKyZx6B3KWVO3zU2cP-20" value="end of game screen" style="strokeWidth=1;shadow=0;dashed=0;align=center;html=1;shape=mxgraph.mockup.text.textBox;fontColor=#666666;align=left;fontSize=17;spacingLeft=4;spacingTop=-3;whiteSpace=wrap;strokeColor=#666666;mainText=" parent="1" vertex="1">
          <mxGeometry x="620" y="-30" width="170" height="30" as="geometry" />
        </mxCell>
        <mxCell id="qRgKyZx6B3KWVO3zU2cP-22" style="edgeStyle=orthogonalEdgeStyle;rounded=0;orthogonalLoop=1;jettySize=auto;html=1;exitX=0.5;exitY=0;exitDx=0;exitDy=0;entryX=0.682;entryY=0.07;entryDx=0;entryDy=0;entryPerimeter=0;" parent="1" source="qRgKyZx6B3KWVO3zU2cP-16" target="qRgKyZx6B3KWVO3zU2cP-16" edge="1">
          <mxGeometry relative="1" as="geometry" />
        </mxCell>
        <mxCell id="qRgKyZx6B3KWVO3zU2cP-23" value="&quot;Congratulations&quot; message" style="rounded=1;whiteSpace=wrap;html=1;" parent="1" vertex="1">
          <mxGeometry x="610" y="200" width="180" height="50" as="geometry" />
        </mxCell>
        <mxCell id="A7d2xuIUnQYI6-qHidbI-1" value="" style="ellipse;whiteSpace=wrap;html=1;aspect=fixed;" vertex="1" parent="1">
          <mxGeometry x="190" y="390" width="60" height="60" as="geometry" />
        </mxCell>
        <mxCell id="A7d2xuIUnQYI6-qHidbI-3" value="" style="endArrow=none;html=1;rounded=0;" edge="1" parent="1">
          <mxGeometry width="50" height="50" relative="1" as="geometry">
            <mxPoint x="300" y="480" as="sourcePoint" />
            <mxPoint x="220" y="440" as="targetPoint" />
          </mxGeometry>
        </mxCell>
        <mxCell id="A7d2xuIUnQYI6-qHidbI-5" value="floating action button, takes you to scores screen" style="text;html=1;align=center;verticalAlign=middle;whiteSpace=wrap;rounded=0;fontSize=13;" vertex="1" parent="1">
          <mxGeometry x="275" y="480" width="105" height="30" as="geometry" />
        </mxCell>
        <mxCell id="A7d2xuIUnQYI6-qHidbI-6" value="" style="verticalLabelPosition=bottom;verticalAlign=top;html=1;shadow=0;dashed=0;strokeWidth=1;shape=mxgraph.android.phone2;strokeColor=#c0c0c0;" vertex="1" parent="1">
          <mxGeometry x="470" y="550" width="200" height="390" as="geometry" />
        </mxCell>
        <mxCell id="A7d2xuIUnQYI6-qHidbI-7" value="scores screen" style="text;html=1;align=center;verticalAlign=middle;whiteSpace=wrap;rounded=0;fontSize=16;" vertex="1" parent="1">
          <mxGeometry x="510" y="510" width="120" height="30" as="geometry" />
        </mxCell>
        <mxCell id="A7d2xuIUnQYI6-qHidbI-8" value="&quot;league size&quot; &quot;guess count&quot; &quot;duration&quot; &quot;timestamp&quot; headers" style="text;html=1;align=center;verticalAlign=middle;whiteSpace=wrap;rounded=0;" vertex="1" parent="1">
          <mxGeometry x="485" y="590" width="175" height="50" as="geometry" />
        </mxCell>
        <mxCell id="A7d2xuIUnQYI6-qHidbI-10" value="list of stats from previous games&amp;nbsp;" style="whiteSpace=wrap;html=1;aspect=fixed;fontSize=14;" vertex="1" parent="1">
          <mxGeometry x="480" y="680" width="180" height="180" as="geometry" />
        </mxCell>
      </root>
    </mxGraphModel>
  </diagram>
</mxfile>
